<svg width="123" height="28" viewBox="0 0 123 28" fill="none" xmlns="http://www.w3.org/2000/svg">
<ellipse cx="12.9989" cy="14.0017" rx="3.24988" ry="3.1111" fill="url(#paint0_linear_661_454)"/>
<ellipse cx="12.9989" cy="3.1111" rx="3.24988" ry="3.1111" fill="url(#paint1_linear_661_454)"/>
<ellipse cx="12.9989" cy="24.8884" rx="3.24988" ry="3.1111" fill="url(#paint2_linear_661_454)"/>
<ellipse cx="22.7499" cy="19.4451" rx="3.24988" ry="3.1111" fill="url(#paint3_linear_661_454)"/>
<ellipse cx="22.7499" cy="8.55641" rx="3.24988" ry="3.1111" fill="url(#paint4_linear_661_454)"/>
<ellipse cx="3.24988" cy="8.55641" rx="3.24988" ry="3.1111" fill="url(#paint5_linear_661_454)"/>
<ellipse cx="3.24988" cy="19.4451" rx="3.24988" ry="3.1111" fill="url(#paint6_linear_661_454)"/>
<path d="M41.384 20.24C42.1733 20.24 42.912 20.1067 43.6 19.84C44.288 19.5733 44.8427 19.1733 45.264 18.64C45.6907 18.1067 45.904 17.4427 45.904 16.648C45.904 16.0773 45.7973 15.6053 45.584 15.232C45.376 14.8533 45.1067 14.5493 44.776 14.32C44.4507 14.0907 44.112 13.912 43.76 13.784C43.4133 13.656 43.0987 13.5547 42.816 13.48L40.752 12.904C40.496 12.8347 40.24 12.7493 39.984 12.648C39.728 12.5413 39.5147 12.4 39.344 12.224C39.1733 12.0427 39.088 11.8107 39.088 11.528C39.088 11.2293 39.1867 10.968 39.384 10.744C39.5867 10.52 39.8507 10.3467 40.176 10.224C40.5067 10.1013 40.864 10.0453 41.248 10.056C41.84 10.072 42.3733 10.2453 42.848 10.576C43.3227 10.9067 43.6213 11.376 43.744 11.984L45.816 11.624C45.56 10.5573 45.0347 9.73333 44.24 9.152C43.4453 8.56533 42.456 8.26667 41.272 8.256C40.4933 8.25067 39.784 8.376 39.144 8.632C38.5093 8.88267 38.0027 9.25867 37.624 9.76C37.2507 10.2613 37.064 10.8827 37.064 11.624C37.064 12.1307 37.1467 12.5573 37.312 12.904C37.4827 13.2453 37.6987 13.5253 37.96 13.744C38.2267 13.9627 38.5067 14.136 38.8 14.264C39.0987 14.392 39.376 14.4933 39.632 14.568L42.608 15.448C43.4613 15.704 43.888 16.1467 43.888 16.776C43.888 17.128 43.7733 17.4293 43.544 17.68C43.32 17.9253 43.0267 18.112 42.664 18.24C42.3013 18.368 41.9147 18.432 41.504 18.432C40.8107 18.432 40.1973 18.2453 39.664 17.872C39.136 17.4987 38.7867 16.9707 38.616 16.288L36.616 16.592C36.7387 17.344 37.016 17.9947 37.448 18.544C37.8853 19.088 38.44 19.5067 39.112 19.8C39.7893 20.0933 40.5467 20.24 41.384 20.24ZM47.8196 20H49.7636V14.68C49.7636 14.1413 49.9103 13.704 50.2036 13.368C50.5023 13.032 50.897 12.864 51.3876 12.864C51.8943 12.864 52.2943 13.032 52.5876 13.368C52.881 13.704 53.0276 14.1733 53.0276 14.776V20H54.9476V14.68C54.9476 14.1093 55.1023 13.664 55.4116 13.344C55.7263 13.024 56.1156 12.864 56.5796 12.864C57.0756 12.864 57.4703 13.032 57.7636 13.368C58.0623 13.6987 58.2116 14.16 58.2116 14.752V20H60.1396V14.264C60.1396 13.3253 59.8836 12.5707 59.3716 12C58.865 11.4293 58.1343 11.144 57.1796 11.144C56.6196 11.144 56.1076 11.2667 55.6436 11.512C55.1796 11.7573 54.8143 12.0933 54.5476 12.52C54.3183 12.0987 53.993 11.7653 53.5716 11.52C53.1503 11.2693 52.6356 11.144 52.0276 11.144C51.5103 11.144 51.033 11.248 50.5956 11.456C50.1636 11.6587 49.8063 11.9387 49.5236 12.296V11.36H47.8196V20ZM64.8422 20.24C65.5302 20.24 66.1142 20.128 66.5942 19.904C67.0796 19.6747 67.5062 19.32 67.8742 18.84V20H69.5623V14.696C69.5623 14.3227 69.5463 13.9787 69.5142 13.664C69.4823 13.344 69.3889 13.032 69.2343 12.728C68.9516 12.1573 68.5169 11.7467 67.9303 11.496C67.3489 11.2453 66.6742 11.12 65.9062 11.12C64.8929 11.12 64.0849 11.3413 63.4822 11.784C62.8796 12.2267 62.4716 12.8133 62.2582 13.544L64.0182 14.096C64.1622 13.6533 64.4156 13.3413 64.7782 13.16C65.1409 12.9787 65.5169 12.888 65.9062 12.888C66.4929 12.888 66.9249 13.008 67.2023 13.248C67.4796 13.4827 67.6369 13.848 67.6743 14.344C66.9169 14.456 66.2129 14.5653 65.5622 14.672C64.9169 14.7733 64.3676 14.8987 63.9142 15.048C63.2316 15.2827 62.7329 15.616 62.4182 16.048C62.1036 16.4747 61.9462 17.0027 61.9462 17.632C61.9462 18.1067 62.0556 18.5413 62.2742 18.936C62.4982 19.3307 62.8262 19.648 63.2582 19.888C63.6902 20.1227 64.2182 20.24 64.8422 20.24ZM65.2262 18.704C64.7729 18.704 64.4262 18.6 64.1862 18.392C63.9516 18.184 63.8342 17.9227 63.8342 17.608C63.8342 17.3253 63.9249 17.096 64.1062 16.92C64.2929 16.744 64.5516 16.5947 64.8822 16.472C65.1862 16.3707 65.5516 16.2827 65.9783 16.208C66.4049 16.128 66.9622 16.0347 67.6502 15.928C67.6449 16.1307 67.6316 16.3573 67.6102 16.608C67.5889 16.8533 67.5382 17.0747 67.4583 17.272C67.3942 17.4693 67.2689 17.68 67.0823 17.904C66.9009 18.128 66.6556 18.3173 66.3463 18.472C66.0369 18.6267 65.6636 18.704 65.2262 18.704ZM71.845 20H73.781V15.608C73.781 15.1067 73.8717 14.6613 74.053 14.272C74.2397 13.8827 74.5303 13.5813 74.925 13.368C75.1917 13.2133 75.4903 13.1227 75.821 13.096C76.1517 13.064 76.4477 13.0853 76.709 13.16V11.36C76.3197 11.3013 75.9197 11.3093 75.509 11.384C75.0983 11.4533 74.733 11.5973 74.413 11.816C74.2317 11.928 74.069 12.064 73.925 12.224C73.781 12.3787 73.6557 12.552 73.549 12.744V11.36H71.845V20ZM83.4996 20V18.384C82.961 18.464 82.481 18.4853 82.0596 18.448C81.6383 18.4107 81.3316 18.232 81.1396 17.912C81.0383 17.7467 80.9823 17.5333 80.9716 17.272C80.9663 17.0053 80.9636 16.7013 80.9636 16.36V12.872H83.4996V11.36H80.9636V8.96H79.0436V11.36H77.4756V12.872H79.0436V16.472C79.0436 16.968 79.049 17.4107 79.0596 17.8C79.0703 18.184 79.1743 18.5627 79.3716 18.936C79.5956 19.3467 79.9236 19.648 80.3556 19.84C80.7876 20.0267 81.2756 20.1253 81.8196 20.136C82.369 20.152 82.929 20.1067 83.4996 20ZM88.9606 20H90.8886V15.136H96.3446V20H98.2646V8.48H96.3446V13.328H90.8886V8.48H88.9606V20ZM100.868 10.048H102.796V8.28H100.868V10.048ZM100.868 20H102.796V11.36H100.868V20ZM107.728 20H109.664L112.8 11.36H110.864L108.696 17.624L106.52 11.36H104.592L107.728 20ZM118.051 20.24C118.883 20.24 119.643 20.0267 120.331 19.6C121.024 19.168 121.536 18.56 121.867 17.776L119.963 17.2C119.579 18.0213 118.904 18.432 117.939 18.432C117.283 18.432 116.766 18.2427 116.387 17.864C116.008 17.48 115.782 16.9307 115.707 16.216H121.963C122.038 15.176 121.923 14.2747 121.619 13.512C121.315 12.7493 120.848 12.16 120.219 11.744C119.595 11.328 118.835 11.12 117.939 11.12C117.091 11.12 116.344 11.312 115.699 11.696C115.054 12.0747 114.55 12.6133 114.187 13.312C113.824 14.0107 113.643 14.832 113.643 15.776C113.643 16.6507 113.827 17.424 114.195 18.096C114.568 18.768 115.086 19.2933 115.747 19.672C116.408 20.0507 117.176 20.24 118.051 20.24ZM118.019 12.808C118.616 12.808 119.075 12.9653 119.395 13.28C119.72 13.5893 119.926 14.0827 120.011 14.76H115.755C115.984 13.4587 116.739 12.808 118.019 12.808Z" fill="#F4F4F4"/>
<defs>
<linearGradient id="paint0_linear_661_454" x1="9.74902" y1="10.8906" x2="16.3225" y2="10.9695" gradientUnits="userSpaceOnUse">
<stop stop-color="#E07344"/>
<stop offset="1" stop-color="#E09844"/>
</linearGradient>
<linearGradient id="paint1_linear_661_454" x1="9.74902" y1="0" x2="16.3225" y2="0.0788264" gradientUnits="userSpaceOnUse">
<stop stop-color="#E07344"/>
<stop offset="1" stop-color="#E09844"/>
</linearGradient>
<linearGradient id="paint2_linear_661_454" x1="9.74902" y1="21.7773" x2="16.3225" y2="21.8562" gradientUnits="userSpaceOnUse">
<stop stop-color="#E07344"/>
<stop offset="1" stop-color="#E09844"/>
</linearGradient>
<linearGradient id="paint3_linear_661_454" x1="19.5" y1="16.334" x2="26.0734" y2="16.4128" gradientUnits="userSpaceOnUse">
<stop stop-color="#E07344"/>
<stop offset="1" stop-color="#E09844"/>
</linearGradient>
<linearGradient id="paint4_linear_661_454" x1="19.5" y1="5.44531" x2="26.0734" y2="5.52414" gradientUnits="userSpaceOnUse">
<stop stop-color="#E07344"/>
<stop offset="1" stop-color="#E09844"/>
</linearGradient>
<linearGradient id="paint5_linear_661_454" x1="0" y1="5.44531" x2="6.57343" y2="5.52414" gradientUnits="userSpaceOnUse">
<stop stop-color="#E07344"/>
<stop offset="1" stop-color="#E09844"/>
</linearGradient>
<linearGradient id="paint6_linear_661_454" x1="0" y1="16.334" x2="6.57343" y2="16.4128" gradientUnits="userSpaceOnUse">
<stop stop-color="#E07344"/>
<stop offset="1" stop-color="#E09844"/>
</linearGradient>
</defs>
</svg>
